<svg id="Layer_1" data-name="Layer 1" xmlns="http://www.w3.org/2000/svg" viewBox="0 0 500 500"><defs><style>.cls-1{fill:#faae3b;}.cls-2{fill:#b3814b;}.cls-3{fill:none;stroke:#000;stroke-linecap:round;stroke-linejoin:round;stroke-width:20.07px;}.cls-4{opacity:0.2;}.cls-5{opacity:0.3;}</style></defs><title>pie</title><path class="cls-1" d="M54.17,202.58C83.84,151.1,160.25,108,249.83,108s165.94,43.12,195.63,94.56l-.09,0A48,48,0,1,1,394,250.41a48,48,0,1,1-96,0,48,48,0,1,1-96,0,48,48,0,1,1-96,0,48,48,0,1,1-51.88-47.83Z"/><path class="cls-2" d="M441.94,298.4a48,48,0,0,1-48-48,48,48,0,1,1-96,0,48,48,0,1,1-96,0,48,48,0,1,1-96,0,47.92,47.92,0,0,1-56.2,47.27l15.77,59.16a47.4,47.4,0,0,0,45.8,35.2h276a47.42,47.42,0,0,0,45.81-35.2l15.71-59A47.7,47.7,0,0,1,441.94,298.4Z"/><line class="cls-3" x1="250" y1="150.79" x2="250" y2="172.57"/><line class="cls-3" x1="191.57" y1="150.79" x2="165.6" y2="172.57"/><line class="cls-3" x1="308.43" y1="150.79" x2="334.4" y2="172.57"/><path class="cls-4" d="M441.94,298.4a48,48,0,0,0,3.43-95.85l.09,0C415.77,151.08,339.38,108,249.83,108c0,0,143.43,36.49,144.12,142.45A48,48,0,0,0,441.94,298.4Z"/><path class="cls-3" d="M441.94,298.4a48,48,0,0,1-48-48,48,48,0,1,1-96,0,48,48,0,1,1-96,0,48,48,0,1,1-96,0,47.92,47.92,0,0,1-56.2,47.27l15.77,59.16a47.4,47.4,0,0,0,45.8,35.2h276a47.42,47.42,0,0,0,45.81-35.2l15.71-59A47.7,47.7,0,0,1,441.94,298.4Z"/><path class="cls-5" d="M441.94,298.4a48,48,0,0,1-47.79-43.73C394.68,277,390.56,380.31,270.44,392h117a47.41,47.41,0,0,0,45.8-35.2l15.71-59A47.7,47.7,0,0,1,441.94,298.4Z"/><path class="cls-3" d="M54.17,202.58C83.84,151.1,160.25,108,249.83,108s165.94,43.12,195.63,94.56l-.09,0A48,48,0,1,1,394,250.41a48,48,0,1,1-96,0,48,48,0,1,1-96,0,48,48,0,1,1-96,0,48,48,0,1,1-51.88-47.83Z"/></svg>